<svg width="23" height="23" viewBox="0 0 23 23" fill="none" xmlns="http://www.w3.org/2000/svg">
<path d="M15.7388 6.76125C15.1766 2.88788 11.8684 0 7.91625 0C3.55125 0 0 3.55125 0 7.91625C0 11.8691 2.889 15.1778 6.76125 15.7388C7.32338 19.6117 10.6316 22.5 14.5837 22.5C18.9487 22.5 22.5 18.9487 22.5 14.5837C22.5 10.6316 19.6117 7.32338 15.7388 6.76125ZM0.75 7.91625C0.75 3.96488 3.96488 0.75 7.91625 0.75C11.583 0.75 14.6445 3.49237 15.0382 7.13175C15.0679 7.3905 15.0829 7.6545 15.0829 7.91625C15.0829 11.868 11.868 15.0825 7.91663 15.0825C7.78575 15.0825 7.65413 15.0787 7.52288 15.0712C7.392 15.0637 7.2615 15.0529 7.13212 15.0379C7.00275 15.0229 7.13063 15.0379 7.12988 15.0379C3.49275 14.6445 0.75 11.583 0.75 7.91625ZM14.5837 21.75C11.0704 21.75 8.11275 19.2326 7.5255 15.8228C7.65563 15.8295 7.78613 15.8325 7.91625 15.8325C12.2812 15.8325 15.8325 12.2812 15.8325 7.91625C15.8325 7.78613 15.8291 7.65563 15.8228 7.5255C19.2326 8.11275 21.75 11.0707 21.75 14.5837C21.75 18.5351 18.5351 21.75 14.5837 21.75Z" 
stroke="currentColor" stroke-width="0.5" stroke-linecap="round" stroke-linejoin="round"/>
</svg>