<svg width="20" height="20" viewBox="0 0 20 20" fill="none" xmlns="http://www.w3.org/2000/svg">
<path d="M19.2538 0.424211C19.243 0.34964 19.2085 0.280524 19.1554 0.227028C19.1023 0.173531 19.0335 0.138478 18.959 0.127023C16.859 -0.180008 14.5959 0.0717108 12.4138 0.855929C10.1713 1.66124 8.05445 3.01968 6.28867 4.78405C6.08836 4.98468 5.89351 5.18952 5.70414 5.39859L2.96054 5.21577C2.76771 5.20314 2.5744 5.23177 2.3935 5.29975C2.2126 5.36772 2.04828 5.47349 1.91148 5.60999L0.103044 7.41843C0.0606511 7.4608 0.0297937 7.5133 0.0134026 7.57095C-0.00298852 7.6286 -0.00436897 7.68948 0.00939252 7.74782C0.023154 7.80615 0.0516003 7.86 0.0920296 7.90424C0.132459 7.94849 0.183529 7.98166 0.240388 8.00062L3.20148 8.9878C2.80725 9.74646 2.47583 10.5361 2.21054 11.3489C2.19047 11.4106 2.18785 11.4766 2.20299 11.5396C2.21813 11.6027 2.25044 11.6603 2.29633 11.7061L2.96242 12.3722L1.43242 13.8998C1.38272 13.9495 1.34905 14.013 1.33576 14.082C1.32248 14.151 1.33018 14.2224 1.35789 14.287C2.07486 15.9675 3.41335 17.306 5.09383 18.023C5.1584 18.0508 5.22984 18.0586 5.29889 18.0453C5.36793 18.032 5.43139 17.9982 5.48101 17.9484L7.00867 16.4208L7.67476 17.0869C7.74077 17.1529 7.83031 17.19 7.92367 17.19C7.96045 17.19 7.99701 17.1841 8.03195 17.1726C8.84475 16.9074 9.63443 16.576 10.393 16.1817L11.3802 19.1428C11.3991 19.1997 11.4323 19.2508 11.4765 19.2912C11.5207 19.3317 11.5745 19.3601 11.6329 19.3739C11.6595 19.38 11.6867 19.3832 11.714 19.3833C11.8072 19.3831 11.8965 19.3461 11.9624 19.2801L13.7709 17.4717C13.9074 17.3349 14.0131 17.1706 14.0811 16.9897C14.1491 16.8088 14.1777 16.6155 14.1651 16.4226L13.9823 13.6791C14.1913 13.4897 14.3962 13.2948 14.5968 13.0945C16.3612 11.3301 17.7196 9.21187 18.5249 6.96937C19.3091 4.78734 19.5609 2.52421 19.2538 0.424211ZM1.00023 7.51359L2.40648 6.10734C2.47244 6.04195 2.5516 5.99141 2.63866 5.95907C2.72572 5.92674 2.81868 5.91336 2.91132 5.91984L5.12664 6.06749C4.53597 6.78824 4.00573 7.55647 3.54132 8.36437L1.00023 7.51359ZM5.15523 17.2795C3.81315 16.6476 2.73326 15.5677 2.10133 14.2256L3.45742 12.8695L6.51132 15.9234L5.15523 17.2795ZM8.01836 16.4358L2.94461 11.3625C3.09711 10.9162 3.27195 10.4758 3.46914 10.0411L9.33976 15.9117C8.9057 16.1083 8.46523 16.2831 8.01836 16.4362V16.4358ZM13.4634 16.4691C13.4695 16.5619 13.4558 16.6549 13.423 16.742C13.3903 16.8291 13.3393 16.9081 13.2735 16.9739L11.8673 18.3801L11.0202 15.8391C11.8281 15.3746 12.5964 14.8444 13.3171 14.2537L13.4634 16.4691ZM14.0994 12.5967C12.9002 13.8002 11.5207 14.8093 10.0105 15.5878L3.79257 9.3703C4.57106 7.86018 5.58021 6.48065 6.78367 5.2814C8.54054 3.52405 10.5951 2.2303 12.7438 1.47374C14.0488 1.74093 15.2151 2.3578 16.1188 3.26202C17.0226 4.16624 17.6399 5.33202 17.9071 6.63702C17.1505 8.78577 15.8568 10.8403 14.0994 12.5972V12.5967ZM18.2826 5.39062C17.9273 4.40322 17.3584 3.50647 16.6164 2.76446C15.8744 2.02245 14.9776 1.45351 13.9902 1.09827C15.5207 0.71343 17.0784 0.601398 18.5938 0.787492C18.7794 2.30296 18.6674 3.86062 18.2826 5.39062Z"
stroke="currentColor" stroke-width="0.6" stroke-linecap="round" stroke-linejoin="round"/>
</svg>