<svg width="23" height="19" viewBox="0 0 23 19" fill="none" xmlns="http://www.w3.org/2000/svg">
<path d="M20.6503 7.32971H18.076V2.67169C18.076 1.19861 16.8776 0 15.4043 0H2.67188C1.19861 0 0 1.19861 0 2.67169V11.6807C0 13.1539 1.19861 14.3524 2.67188 14.3524H3.94977V16.9224C3.94977 17.0676 4.03363 17.1998 4.1651 17.2617C4.216 17.2857 4.27057 17.2974 4.32477 17.2974C4.41046 17.2974 4.49524 17.2681 4.5639 17.2114L8.01819 14.3524H10.6315V14.9562C10.6315 15.9761 11.4611 16.8058 12.481 16.8058H17.1742L19.3495 18.6116C19.4182 18.6685 19.5031 18.698 19.589 18.698C19.6432 18.698 19.6976 18.6863 19.7483 18.6625C19.8799 18.6006 19.964 18.4684 19.964 18.323V16.8058H20.6503C21.6702 16.8058 22.5 15.9761 22.5 14.9562V9.17926C22.5 8.15936 21.6702 7.32971 20.6503 7.32971ZM11.0065 13.6024H7.88306C7.79572 13.6024 7.71112 13.6328 7.64392 13.6884L4.69977 16.1252V13.9774C4.69977 13.7703 4.53186 13.6024 4.32477 13.6024H2.67188C1.61206 13.6024 0.75 12.7403 0.75 11.6807V2.67169C0.75 1.61206 1.61206 0.75 2.67188 0.75H15.4043C16.4639 0.75 17.326 1.61206 17.326 2.67169V11.6807C17.326 12.7403 16.4639 13.6024 15.4043 13.6024H11.0065ZM21.75 14.9562C21.75 15.5625 21.2567 16.0558 20.6503 16.0558H19.589C19.3819 16.0558 19.214 16.2237 19.214 16.4308V17.5243L17.549 16.1422C17.4816 16.0864 17.397 16.0558 17.3095 16.0558H12.481C11.8748 16.0558 11.3815 15.5625 11.3815 14.9562V14.3524H15.4043C15.5885 14.3524 15.7683 14.3336 15.9421 14.298C17.1584 14.0484 18.076 12.9698 18.076 11.6807V8.07971H20.6503C21.2567 8.07971 21.75 8.573 21.75 9.17926V14.9562Z" 
stroke="currentColor" stroke-width="0.5" stroke-linecap="round" stroke-linejoin="round"/>
</svg>